# xmcd CD database file
#
# Track frame offsets:
#	150
#	12643
#	25105
#	37448
#	49570
#	65018
#	83165
#	94000
#	106918
#	122753
#	136085
#	152638
#	161940
#	177988
#	190983
#	203425
#	216103
#	229143
#	238005
#	256773
#	271788
#	286343
#	300288
#	311705
#
# Disc length: 4314 seconds
#
# Revision: 1
# Processed by: cddbd v1.5PL3 Copyright (c) Steve Scherf et al.
# Submitted via: CDex 1.50
#
DISCID=4a10d818
DTITLE=Benny Goodman - And His Rhythm Makers
DYEAR=1935
DGENRE=Jazz
TTITLE0=Makin' Whoopee
TTITLE1=Poor Butterfly
TTITLE2=Ballade In Blue
TTITLE3=Changes
TTITLE4=I Would Do Most Anythin For You
TTITLE5=Sophisticated Lady And Mood Indigo
TTITLE6=I Can't Give You Anything But Love
TTITLE7=Yes, We Have No Bananas
TTITLE8=Rose Room
TTITLE9=I Never Knew
TTITLE10=Love Dropped In For Tea
TTITLE11=Farewell Blues
TTITLE12=Pardon My Love
TTITLE13=I Was Lucky
TTITLE14=If I Could Be With You
TTITLE15=Darktown Strutters' Ball
TTITLE16=St. Louis Blue
TTITLE17=Down Home In Indiana
TTITLE18=I Surrender Dear
TTITLE19=Bugle Call Rag
TTITLE20=Can't We Be Friends
TTITLE21=Life Is A Song
TTITLE22=Sweet Little You
TTITLE23=Between The Devil And The Deep Blue Sea
EXTD=YEAR: 1935
EXTT0=
EXTT1=
EXTT2=
EXTT3=
EXTT4=
EXTT5=
EXTT6=
EXTT7=
EXTT8=
EXTT9=
EXTT10=
EXTT11=
EXTT12=
EXTT13=
EXTT14=
EXTT15=
EXTT16=
EXTT17=
EXTT18=
EXTT19=
EXTT20=
EXTT21=
EXTT22=
EXTT23=
PLAYORDER=
